# xmcd
#
# Track frame offsets:
# 150
# 11854
# 30928
# 40192
# 55370
# 69191
# 92446
# 110160
# 129274
# 144633
# 157940
# 171910
#
# Disc length: 2420 seconds
#
#
# Revision: 0
# Processed by: cddbd v1.5.1PL2 Copyright (c) Steve Scherf et al.
# Submitted via: FreeRIP 2.944 
#
DISCID=9609720c
DTITLE=Various Artist - The Southern Sessions
DYEAR=2006
DGENRE=alt. country
TTITLE0=The Manhunt - The Ragtime Wranglers
TTITLE1=Tear Factory - Smutfish
TTITLE2=Little Green Handle - Jumbo Dollars
TTITLE3=Calavera - White Sands
TTITLE4=Dark Cafe - Jim Wake and Sleepwalker
TTITLE5=Summer Storm - La Kidda
TTITLE6=Here Comes the Sun - Remmelt, Muus and Femke
TTITLE7=A Thousand Days - Dyzack
TTITLE8=Run Baby Run - The Polar Exploration Ship
TTITLE9=Cougar - El Pino and the Volunteers
TTITLE10=Left Bank - Templo Diez
TTITLE11=Don't Lie To Me - Miss Mary Ann
EXTD=Zuid-Hollandse Popunie
EXTT0=
EXTT1=
EXTT2=
EXTT3=
EXTT4=
EXTT5=
EXTT6=
EXTT7=
EXTT8=
EXTT9=
EXTT10=
EXTT11=
PLAYORDER=
